<svg width="21" height="24" viewBox="0 0 21 24" fill="none" xmlns="http://www.w3.org/2000/svg">
<path d="M2.33333 23.3333C1.69167 23.3333 1.14236 23.1049 0.685417 22.6479C0.228472 22.191 0 21.6417 0 21V4.66667C0 4.025 0.228472 3.47569 0.685417 3.01875C1.14236 2.56181 1.69167 2.33333 2.33333 2.33333H7.23333C7.50556 1.63333 7.93333 1.06944 8.51667 0.641667C9.1 0.213889 9.76111 0 10.5 0C11.2389 0 11.9 0.213889 12.4833 0.641667C13.0667 1.06944 13.4944 1.63333 13.7667 2.33333H18.6667C19.3083 2.33333 19.8576 2.56181 20.3146 3.01875C20.7715 3.47569 21 4.025 21 4.66667V21C21 21.6417 20.7715 22.191 20.3146 22.6479C19.8576 23.1049 19.3083 23.3333 18.6667 23.3333H2.33333ZM10.5 3.79167C10.7528 3.79167 10.9618 3.70903 11.1271 3.54375C11.2924 3.37847 11.375 3.16944 11.375 2.91667C11.375 2.66389 11.2924 2.45486 11.1271 2.28958C10.9618 2.12431 10.7528 2.04167 10.5 2.04167C10.2472 2.04167 10.0382 2.12431 9.87292 2.28958C9.70764 2.45486 9.625 2.66389 9.625 2.91667C9.625 3.16944 9.70764 3.37847 9.87292 3.54375C10.0382 3.70903 10.2472 3.79167 10.5 3.79167ZM2.33333 19.6583C3.38333 18.6278 4.60347 17.816 5.99375 17.2229C7.38403 16.6299 8.88611 16.3333 10.5 16.3333C12.1139 16.3333 13.616 16.6299 15.0063 17.2229C16.3965 17.816 17.6167 18.6278 18.6667 19.6583V4.66667H2.33333V19.6583ZM10.5 14C11.6278 14 12.5903 13.6014 13.3875 12.8042C14.1847 12.0069 14.5833 11.0444 14.5833 9.91667C14.5833 8.78889 14.1847 7.82639 13.3875 7.02917C12.5903 6.23194 11.6278 5.83333 10.5 5.83333C9.37222 5.83333 8.40972 6.23194 7.6125 7.02917C6.81528 7.82639 6.41667 8.78889 6.41667 9.91667C6.41667 11.0444 6.81528 12.0069 7.6125 12.8042C8.40972 13.6014 9.37222 14 10.5 14ZM4.66667 21H16.3333C16.3333 20.9417 16.3333 20.8931 16.3333 20.8542C16.3333 20.8153 16.3333 20.7667 16.3333 20.7083C15.5167 20.0278 14.6125 19.5174 13.6208 19.1771C12.6292 18.8368 11.5889 18.6667 10.5 18.6667C9.41111 18.6667 8.37083 18.8368 7.37917 19.1771C6.3875 19.5174 5.48333 20.0278 4.66667 20.7083C4.66667 20.7667 4.66667 20.8153 4.66667 20.8542C4.66667 20.8931 4.66667 20.9417 4.66667 21ZM10.5 11.6667C10.0139 11.6667 9.60069 11.4965 9.26042 11.1562C8.92014 10.816 8.75 10.4028 8.75 9.91667C8.75 9.43056 8.92014 9.01736 9.26042 8.67708C9.60069 8.33681 10.0139 8.16667 10.5 8.16667C10.9861 8.16667 11.3993 8.33681 11.7396 8.67708C12.0799 9.01736 12.25 9.43056 12.25 9.91667C12.25 10.4028 12.0799 10.816 11.7396 11.1562C11.3993 11.4965 10.9861 11.6667 10.5 11.6667Z" fill="#C5A059"/>
</svg>
