<svg width="21" height="21" viewBox="0 0 21 21" fill="none" xmlns="http://www.w3.org/2000/svg">
<path d="M0 21V4.66667H4.66667V0H16.3333V9.33333H21V21H11.6667V16.3333H9.33333V21H0ZM2.33333 18.6667H4.66667V16.3333H2.33333V18.6667ZM2.33333 14H4.66667V11.6667H2.33333V14ZM2.33333 9.33333H4.66667V7H2.33333V9.33333ZM7 14H9.33333V11.6667H7V14ZM7 9.33333H9.33333V7H7V9.33333ZM7 4.66667H9.33333V2.33333H7V4.66667ZM11.6667 14H14V11.6667H11.6667V14ZM11.6667 9.33333H14V7H11.6667V9.33333ZM11.6667 4.66667H14V2.33333H11.6667V4.66667ZM16.3333 18.6667H18.6667V16.3333H16.3333V18.6667ZM16.3333 14H18.6667V11.6667H16.3333V14Z" fill="#C5A059"/>
</svg>
