<svg width="22" height="22" viewBox="0 0 22 22" fill="none" xmlns="http://www.w3.org/2000/svg">
<path d="M8.25417 21.2917L5.36667 15.925L0 13.0375L2.07083 10.9958L6.3 11.725L9.275 8.75L0.0291667 4.8125L2.47917 2.30417L13.7083 4.2875L17.325 0.670833C17.7722 0.223611 18.3264 0 18.9875 0C19.6486 0 20.2028 0.223611 20.65 0.670833C21.0972 1.11806 21.3208 1.66736 21.3208 2.31875C21.3208 2.97014 21.0972 3.51944 20.65 3.96667L17.0042 7.6125L18.9875 18.8125L16.5083 21.2917L12.5417 12.0458L9.56667 15.0208L10.325 19.2208L8.25417 21.2917Z" fill="#C5A059"/>
</svg>
